<svg xmlns="http://www.w3.org/2000/svg" xmlns:xlink="http://www.w3.org/1999/xlink" viewBox="0 0 512 512" width="512" height="512">
  <defs>
    <clipPath id="tile"><rect x="16" y="16" width="480" height="480" rx="108"/></clipPath>
    <pattern id="argyle" width="120" height="160" patternUnits="userSpaceOnUse">
      <rect width="120" height="160" fill="#120D02"/>
      <polygon points="60,0 120,80 60,160 0,80" fill="#5A3F08"/>
      <polygon points="0,0 60,80 0,160" fill="#33240A"/>
      <polygon points="120,0 60,80 120,160" fill="#33240A"/>
      <g stroke="#F6C544" stroke-width="2" opacity="0.30" stroke-dasharray="6 7">
        <path d="M60 -80 L200 80 M60 -80 L-80 80 M60 80 L200 240 M60 80 L-80 240 M60 240 L200 400 M60 240 L-80 400"/>
      </g>
    </pattern>
  </defs>
  <g clip-path="url(#tile)"><rect x="16" y="16" width="480" height="480" fill="url(#argyle)"/></g>
  <rect x="16" y="16" width="480" height="480" rx="108" fill="none" stroke="#2BD3D3" stroke-width="6"/>
  <defs><linearGradient id="amber" x1="0" y1="0" x2="0" y2="1">
    <stop offset="0%" stop-color="#F6C544"/><stop offset="100%" stop-color="#E5A00D"/></linearGradient></defs>
  <g transform="translate(256 256)"><path d="M-104 -136 H 4 L 112 0 L 4 136 H -104 L 4 0 Z" fill="url(#amber)"/></g>
</svg>
